<?xml version="1.0" encoding="utf-8"?>
<!-- Generator: Adobe Illustrator 24.0.0, SVG Export Plug-In . SVG Version: 6.00 Build 0)  -->
<svg version="1.1" id="Layer_1" xmlns="http://www.w3.org/2000/svg" xmlns:xlink="http://www.w3.org/1999/xlink" x="0px" y="0px"
	 viewBox="0 0 841.89 241.79" style="enable-background:new 0 0 841.89 241.79;" xml:space="preserve">
<style type="text/css">
	.st0{fill:#FFFFFF;}
</style>
<g>
	<g>
		<polygon class="st0" points="457.26,28.57 421.24,4.78 386.19,27.93 422.22,51.11 		"/>
		<polygon class="st0" points="406.49,61.24 371.16,37.85 334.13,62.31 369.02,85.35 		"/>
		<polygon class="st0" points="437.95,61.24 474.42,84.7 508.34,62.31 472.3,38.5 		"/>
		<polygon class="st0" points="422.22,71.65 385.29,96.09 421.24,119.83 458.17,95.44 		"/>
		<path class="st0" d="M377.88,105.09l0.03,31.47l-15.1-9.97v-33.1c0-0.11,0.02-0.23,0.02-0.34l-32.73-21.62v107.71l32.71,21.61
			v-24.94l15.17,10.02l0.02,24.96l38.28,25.28V128.45l-38.17-25.21C377.95,103.84,377.87,104.46,377.88,105.09z"/>
		<path class="st0" d="M481.47,91.95c0.1,0.5,0.17,1.02,0.17,1.54v33.1l-15.1,9.97l0.03-31.47c0-1.02-0.21-2-0.59-2.91l-39.78,26.28
			v107.71l40.25-26.58l0.02-23.65l15.17-10.02v23.64l30.74-20.3V71.53L481.47,91.95z"/>
	</g>
</g>
<g>
	<path class="st0" d="M842.47,83.71H522.61v76.57h319.86L809.39,122L842.47,83.71z M575.89,132.65h-5.34v-8.67h-10.68v8.67h-5.34
		v-21.44h5.34v8.61h10.68v-8.61h5.34V132.65z M608.31,132.65l-1.77-4.23h-9.6l-1.6,4.23h-5.66l8.66-21.44h6.19l9.52,21.44H608.31z
		 M650.9,132.65h-5.34v-13.38l-5.79,6.72h-0.8l-5.79-6.72v13.38h-5.34v-21.44h4.64l6.89,7.95l6.89-7.95h4.64V132.65z M681.92,122.14
		c-1.26,1.27-2.98,1.9-5.16,1.9h-4.25v8.61h-5.34v-21.44h9.56c2.17,0,3.89,0.63,5.17,1.89c1.28,1.26,1.92,2.75,1.92,4.47
		C683.82,119.34,683.19,120.87,681.92,122.14z M714.74,132.65h-15.8v-21.44h15.59v3.93h-10.25v4.5h9.77v3.93h-9.77v5.16h10.47
		V132.65z M743.06,132.65c-0.35-0.71-0.96-2.05-1.83-4.04c-0.87-1.98-1.61-3.26-2.23-3.82c-0.62-0.56-1.28-0.84-1.99-0.84h-1.53v8.7
		h-5.34v-21.44h9.58c2.08,0,3.76,0.6,5.06,1.8c1.3,1.2,1.95,2.66,1.95,4.36c0,2.36-1.23,4.11-3.68,5.24
		c1.08,0.49,2.1,1.81,3.07,3.96c0.97,2.15,1.91,4.17,2.81,6.07H743.06z M775.96,131.16c-1.51,1.18-3.5,1.76-5.96,1.76
		c-2.66,0-5.24-0.69-7.73-2.07v-4.62c1.43,0.96,2.7,1.66,3.8,2.1c1.1,0.44,2.28,0.66,3.51,0.66c2.1,0,3.15-0.66,3.15-1.98
		c0-0.45-0.21-0.87-0.63-1.27c-0.42-0.4-1.43-0.88-3.03-1.46c-1.6-0.57-2.87-1.1-3.81-1.6c-0.94-0.49-1.74-1.19-2.42-2.1
		c-0.68-0.91-1.02-2.08-1.02-3.5c0-1.84,0.74-3.33,2.23-4.46c1.48-1.13,3.47-1.7,5.95-1.7c2.29,0,4.71,0.55,7.26,1.66v4.19
		c-2.84-1.28-5.11-1.92-6.8-1.92c-0.96,0-1.73,0.16-2.29,0.48c-0.57,0.32-0.85,0.75-0.85,1.28c0,0.41,0.2,0.8,0.61,1.17
		c0.41,0.37,1.41,0.84,2.99,1.43c1.59,0.58,2.85,1.13,3.8,1.63c0.95,0.5,1.77,1.21,2.46,2.12c0.69,0.91,1.04,2.06,1.04,3.45
		C778.23,128.4,777.47,129.98,775.96,131.16z"/>
	<polygon class="st0" points="598.36,124.67 604.98,124.67 601.51,116.34 	"/>
	<path class="st0" d="M677.43,115.68c-0.59-0.36-1.61-0.54-3.04-0.54h-1.89v4.97h2.49c2.22,0,3.33-0.83,3.33-2.49
		C678.32,116.69,678.03,116.05,677.43,115.68z"/>
	<path class="st0" d="M738.17,115.14h-2.7v4.88h2.82c0.9,0,1.61-0.21,2.14-0.64c0.53-0.42,0.79-1.03,0.79-1.82
		C741.23,115.95,740.21,115.14,738.17,115.14z"/>
	<path class="st0" d="M98.62,128.47c2.03,0,3.66-0.6,4.89-1.8c1.24-1.2,1.86-2.78,1.86-4.73c0-1.96-0.62-3.54-1.86-4.74
		c-1.24-1.2-2.87-1.79-4.89-1.79c-2.04,0-3.68,0.6-4.92,1.79c-1.24,1.2-1.86,2.78-1.86,4.74c0,1.95,0.62,3.53,1.86,4.73
		C94.94,127.87,96.58,128.47,98.62,128.47z"/>
	<path class="st0" d="M33.08,121.52L0,160.28h319.86V83.71H0L33.08,121.52z M276.77,112.63c1.48-1.13,3.47-1.7,5.95-1.7
		c2.29,0,4.71,0.55,7.26,1.66v4.19c-2.84-1.28-5.11-1.92-6.8-1.92c-0.96,0-1.73,0.16-2.29,0.48c-0.57,0.32-0.85,0.75-0.85,1.28
		c0,0.41,0.2,0.8,0.61,1.17c0.41,0.37,1.41,0.84,2.99,1.43c1.59,0.58,2.85,1.13,3.8,1.63c0.95,0.5,1.77,1.21,2.46,2.12
		c0.69,0.91,1.04,2.06,1.04,3.45c0,1.99-0.75,3.56-2.26,4.74c-1.51,1.18-3.5,1.76-5.96,1.76c-2.66,0-5.24-0.69-7.73-2.07v-4.62
		c1.43,0.96,2.7,1.66,3.8,2.1c1.1,0.44,2.28,0.66,3.51,0.66c2.1,0,3.15-0.66,3.15-1.98c0-0.45-0.21-0.87-0.63-1.27
		c-0.42-0.4-1.43-0.88-3.03-1.46c-1.6-0.57-2.87-1.1-3.81-1.6c-0.94-0.49-1.74-1.19-2.42-2.1c-0.68-0.91-1.02-2.08-1.02-3.5
		C274.55,115.25,275.29,113.76,276.77,112.63z M248.68,112.63c1.48-1.13,3.47-1.7,5.95-1.7c2.29,0,4.71,0.55,7.26,1.66v4.19
		c-2.84-1.28-5.11-1.92-6.8-1.92c-0.96,0-1.73,0.16-2.29,0.48c-0.57,0.32-0.85,0.75-0.85,1.28c0,0.41,0.2,0.8,0.61,1.17
		c0.41,0.37,1.41,0.84,2.99,1.43c1.59,0.58,2.85,1.13,3.8,1.63c0.95,0.5,1.77,1.21,2.46,2.12c0.69,0.91,1.04,2.06,1.04,3.45
		c0,1.99-0.75,3.56-2.26,4.74c-1.51,1.18-3.5,1.76-5.96,1.76c-2.66,0-5.24-0.69-7.73-2.07v-4.62c1.43,0.96,2.7,1.66,3.8,2.1
		c1.1,0.44,2.28,0.66,3.51,0.66c2.1,0,3.15-0.66,3.15-1.98c0-0.45-0.21-0.87-0.63-1.27c-0.42-0.4-1.43-0.88-3.03-1.46
		c-1.6-0.57-2.87-1.1-3.81-1.6c-0.94-0.49-1.74-1.19-2.42-2.1c-0.68-0.91-1.02-2.08-1.02-3.5
		C246.45,115.25,247.19,113.76,248.68,112.63z M218.34,111.21h15.59v3.93h-10.25v4.5h9.77v3.93h-9.77v5.16h10.47v3.93h-15.8V111.21z
		 M189.83,111.21h5.34v17.51h11v3.93h-16.34V111.21z M160.83,110.92h15.59v3.93h-10.25v4.5h9.77v3.93h-9.77v5.16h10.47v3.93h-15.8
		V110.92z M123.86,110.92h4.64l6.89,7.95l6.89-7.95h4.64v21.44h-5.34v-13.38l-5.79,6.72h-0.8l-5.79-6.72v13.38h-5.34V110.92z
		 M89.72,114.23c2.27-2.2,5.23-3.3,8.89-3.3c3.65,0,6.61,1.1,8.87,3.31c2.26,2.2,3.39,4.77,3.39,7.7c0,2.97-1.15,5.54-3.44,7.72
		c-2.29,2.18-5.23,3.27-8.82,3.27c-3.63,0-6.59-1.08-8.87-3.25c-2.28-2.17-3.42-4.75-3.42-7.73C86.32,119,87.46,116.43,89.72,114.23
		z M51.98,111.21h5.34v8.61H68v-8.61h5.34v21.44H68v-8.67H57.32v8.67h-5.34V111.21z"/>
</g>
</svg>
