<?xml version="1.0" encoding="utf-8"?>
<!-- Generator: Adobe Illustrator 24.0.0, SVG Export Plug-In . SVG Version: 6.00 Build 0)  -->
<svg version="1.1" id="Layer_1" xmlns="http://www.w3.org/2000/svg" xmlns:xlink="http://www.w3.org/1999/xlink" x="0px" y="0px"
	 viewBox="0 0 181.7 241.8" style="enable-background:new 0 0 181.7 241.8;" xml:space="preserve">
<style type="text/css">
	.st0{fill:#FFFFFF;}
</style>
<g>
	<polygon class="st0" points="127.2,28.6 91.1,4.8 56.1,27.9 92.1,51.1 	"/>
	<polygon class="st0" points="76.4,61.2 41.1,37.8 4,62.3 38.9,85.3 	"/>
	<polygon class="st0" points="107.9,61.2 144.3,84.7 178.2,62.3 142.2,38.5 	"/>
	<polygon class="st0" points="92.1,71.7 55.2,96.1 91.1,119.8 128.1,95.4 	"/>
	<path class="st0" d="M47.8,105.1l0,31.5l-15.1-10V93.5c0-0.1,0-0.2,0-0.3L0,71.5v107.7l32.7,21.6v-24.9l15.2,10l0,25l38.3,25.3
		V128.4L48,103.2C47.9,103.8,47.8,104.5,47.8,105.1z"/>
	<path class="st0" d="M151.4,91.9c0.1,0.5,0.2,1,0.2,1.5v33.1l-15.1,10l0-31.5c0-1-0.2-2-0.6-2.9l-39.8,26.3v107.7l40.3-26.6l0-23.6
		l15.2-10v23.6l30.7-20.3V71.5L151.4,91.9z"/>
</g>
</svg>
